<svg width="12" height="11" viewBox="0 0 12 11" fill="none" xmlns="http://www.w3.org/2000/svg">
<path d="M7.38295 10.9959C7.32222 10.9963 7.26202 10.9837 7.2058 10.9588C7.14958 10.9339 7.09845 10.8973 7.05533 10.8509C7.01208 10.8045 6.97775 10.7492 6.95433 10.6883C6.9309 10.6273 6.91884 10.562 6.91884 10.496C6.91884 10.43 6.9309 10.3647 6.95433 10.3038C6.97775 10.2428 7.01208 10.1875 7.05533 10.1411L10.8852 5.99693L7.05533 1.85278C6.96844 1.75865 6.91963 1.63098 6.91963 1.49785C6.91963 1.36473 6.96844 1.23706 7.05533 1.14293C7.14222 1.04879 7.26007 0.995911 7.38295 0.995911C7.50583 0.995911 7.62368 1.04879 7.71057 1.14293L11.8635 5.642C11.9067 5.68847 11.9411 5.74376 11.9645 5.80468C11.9879 5.8656 12 5.93094 12 5.99693C12 6.06292 11.9879 6.12826 11.9645 6.18918C11.9411 6.25009 11.9067 6.30538 11.8635 6.35186L7.71057 10.8509C7.66745 10.8973 7.61632 10.9339 7.5601 10.9588C7.50388 10.9837 7.44368 10.9963 7.38295 10.9959Z" fill="#FE3E57"/>
<path d="M11.5359 6.49677H0.461435C0.339055 6.49677 0.221687 6.44411 0.135151 6.35036C0.0486154 6.25661 0 6.12946 0 5.99688C0 5.8643 0.0486154 5.73714 0.135151 5.6434C0.221687 5.54965 0.339055 5.49698 0.461435 5.49698H11.5359C11.6583 5.49698 11.7756 5.54965 11.8622 5.6434C11.9487 5.73714 11.9973 5.8643 11.9973 5.99688C11.9973 6.12946 11.9487 6.25661 11.8622 6.35036C11.7756 6.44411 11.6583 6.49677 11.5359 6.49677Z" fill="#FE3E57"/>
</svg>
