<svg width="10" height="10" viewBox="0 0 10 10" fill="none" xmlns="http://www.w3.org/2000/svg">
<g clip-path="url(#clip0_12_53)">
<path d="M9.75393 4.40631L5.59428 0.246638C5.2662 -0.0814396 4.73411 -0.0814396 4.40603 0.246638C4.07795 0.574716 4.07795 1.10681 4.40603 1.43488L7.97118 5.00001L4.40603 8.56513C4.07795 8.8932 4.07795 9.42529 4.40603 9.75337C4.73411 10.0814 5.2662 10.0814 5.59428 9.75337L9.75393 5.59372C10.082 5.26646 10.082 4.73438 9.75393 4.40631ZM4.75243 4.15442L1.45002 0.673814C1.11818 0.324511 0.580697 0.324511 0.248862 0.673814C-0.0829742 1.02312 -0.0829742 1.58976 0.248862 1.93949L2.95092 4.78726L0.248862 7.63503C-0.0829742 7.98434 -0.0829742 8.55139 0.248862 8.9007C0.580697 9.25002 1.11818 9.25002 1.45002 8.9007L4.75243 5.4201C5.08426 5.0708 5.08426 4.50415 4.75243 4.15442Z" fill="#727272"/>
</g>
<defs>
<clipPath id="clip0_12_53">
<rect width="10" height="10" fill="white"/>
</clipPath>
</defs>
</svg>
