<svg width="16" height="16" viewBox="0 0 16 16" fill="none" xmlns="http://www.w3.org/2000/svg">
<path d="M0.552686 9.528H1.85595V15.3737C1.85595 15.7182 2.10729 16 2.41448 16H6.23115C6.53835 16 6.78969 15.7182 6.78969 15.3737V11.0938H9.11691V15.3737C9.11691 15.7182 9.36825 16 9.67544 16H13.3059C13.6131 16 13.8645 15.7182 13.8645 15.3737V9.528H15.447C15.6704 9.528 15.8752 9.37142 15.959 9.14178C16.0427 8.91214 15.9962 8.64072 15.838 8.46325L8.55837 0.185375C8.34426 -0.0547275 7.99054 -0.0651539 7.77642 0.174948L0.171042 8.45282C0.00348121 8.63029 -0.0430744 8.90167 0.040706 9.14178C0.124486 9.38184 0.329272 9.528 0.552686 9.528ZM8.14877 1.51108L14.1065 8.27535H13.3059C12.9987 8.27535 12.7474 8.5572 12.7474 8.90167V14.7474H10.2339V10.4675C10.2339 10.123 9.98261 9.84116 9.67541 9.84116H6.23115C5.92396 9.84116 5.67262 10.123 5.67262 10.4675V14.7474H2.97302V8.90167C2.97302 8.5572 2.72168 8.27535 2.41448 8.27535H1.93043L8.14877 1.51108Z" fill="#727272"/>
</svg>
