<?xml version="1.0" encoding="UTF-8"?>
<svg xmlns="http://www.w3.org/2000/svg" xmlns:xlink="http://www.w3.org/1999/xlink" width="16px" height="15px" viewBox="0 0 13 15" version="1.1">
<g id="surface1">
<path style=" stroke:none;fill-rule:nonzero;fill:rgb(0%,0%,0%);fill-opacity:1;" d="M 2.910156 13.125 L 0.214844 13.125 L 0.214844 4.363281 L 2.910156 4.363281 Z M 1.5625 3.167969 C 0.699219 3.167969 0 2.445312 0 1.578125 C 0 0.707031 0.699219 0 1.5625 0 C 2.421875 0 3.121094 0.707031 3.121094 1.574219 C 3.121094 2.445312 2.421875 3.167969 1.5625 3.167969 Z M 12.996094 13.125 L 10.308594 13.125 L 10.308594 8.859375 C 10.308594 7.84375 10.289062 6.539062 8.90625 6.539062 C 7.503906 6.539062 7.289062 7.644531 7.289062 8.785156 L 7.289062 13.125 L 4.597656 13.125 L 4.597656 4.363281 L 7.183594 4.363281 L 7.183594 5.558594 L 7.222656 5.558594 C 7.582031 4.867188 8.460938 4.140625 9.769531 4.140625 C 12.5 4.140625 13 5.957031 13 8.3125 L 13 13.125 Z M 12.996094 13.125 "/>
</g>
</svg>
